<svg xmlns="http://www.w3.org/2000/svg" viewBox="0 0 100 100">
  <defs>
    <linearGradient id="bg" x1="0%" y1="0%" x2="100%" y2="100%">
      <stop offset="0%" stop-color="#0F172A" />
      <stop offset="100%" stop-color="#020617" />
    </linearGradient>
    <linearGradient id="cam" x1="0%" y1="0%" x2="100%" y2="100%">
      <stop offset="0%" stop-color="#06B6D4" />
      <stop offset="100%" stop-color="#3B82F6" />
    </linearGradient>
    <linearGradient id="sparkle" x1="0%" y1="100%" x2="100%" y2="0%">
      <stop offset="0%" stop-color="#D946EF" />
      <stop offset="100%" stop-color="#8B5CF6" />
    </linearGradient>
  </defs>
  <!-- Background with rounded corners -->
  <rect width="100" height="100" rx="24" fill="url(#bg)" />
  
  <!-- Video Camera Body -->
  <path d="M 22 36 A 8 8 0 0 1 30 28 L 56 28 A 8 8 0 0 1 64 36 L 64 64 A 8 8 0 0 1 56 72 L 30 72 A 8 8 0 0 1 22 64 Z" fill="url(#cam)" />
  <!-- Video Camera Lens -->
  <polygon points="67,43 85,31 85,69 67,57" fill="url(#cam)" />
  
  <!-- AI Sparkle Top Right -->
  <path d="M 72 8 Q 77 18 87 23 Q 77 28 72 38 Q 67 28 57 23 Q 67 18 72 8 Z" fill="url(#sparkle)" />
  <!-- Smaller AI Sparkle -->
  <path d="M 30 15 Q 32 20 37 22 Q 32 24 30 29 Q 28 24 23 22 Q 28 20 30 15 Z" fill="url(#sparkle)" />
</svg>